<?xml version="1.0" encoding="UTF-8" standalone="no"?>
<!-- Created with Inkscape (http://www.inkscape.org/) -->

<svg
   xmlns:dc="http://purl.org/dc/elements/1.1/"
   xmlns:cc="http://creativecommons.org/ns#"
   xmlns:rdf="http://www.w3.org/1999/02/22-rdf-syntax-ns#"
   xmlns:svg="http://www.w3.org/2000/svg"
   xmlns="http://www.w3.org/2000/svg"
   xmlns:xlink="http://www.w3.org/1999/xlink"
   xmlns:sodipodi="http://sodipodi.sourceforge.net/DTD/sodipodi-0.dtd"
   xmlns:inkscape="http://www.inkscape.org/namespaces/inkscape"
   width="53.333332"
   height="53.333332"
   viewBox="0 0 50.000002 49.999999"
   id="svg2"
   version="1.1"
   inkscape:version="0.92.1 r15371"
   sodipodi:docname="history.svg">
  <defs
     id="defs4">
    <linearGradient
       inkscape:collect="always"
       id="linearGradient4522">
      <stop
         style="stop-color:#5e2750;stop-opacity:1;"
         offset="0"
         id="stop4518" />
      <stop
         style="stop-color:#ffffff;stop-opacity:0.84433961"
         offset="1"
         id="stop4520" />
    </linearGradient>
    <linearGradient
       inkscape:collect="always"
       id="linearGradient4160">
      <stop
         style="stop-color:#ff6600;stop-opacity:1"
         offset="0"
         id="stop4162" />
      <stop
         style="stop-color:#ffffff;stop-opacity:1"
         offset="1"
         id="stop4164" />
    </linearGradient>
    <linearGradient
       inkscape:collect="always"
       xlink:href="#linearGradient4160"
       id="linearGradient4170"
       x1="7.9446454"
       y1="1009.0834"
       x2="57.826092"
       y2="1060.5505"
       gradientUnits="userSpaceOnUse" />
    <linearGradient
       inkscape:collect="always"
       xlink:href="#linearGradient4522"
       id="linearGradient4524"
       x1="10.304872"
       y1="1041.9712"
       x2="38.245377"
       y2="1011.8235"
       gradientUnits="userSpaceOnUse" />
  </defs>
  <sodipodi:namedview
     id="base"
     pagecolor="#ffffff"
     bordercolor="#666666"
     borderopacity="1.0"
     inkscape:pageopacity="0.0"
     inkscape:pageshadow="2"
     inkscape:zoom="9.7580736"
     inkscape:cx="27.255952"
     inkscape:cy="26.778005"
     inkscape:document-units="px"
     inkscape:current-layer="layer1"
     showgrid="false"
     units="px"
     inkscape:snap-bbox="true"
     inkscape:object-paths="true"
     inkscape:object-nodes="true"
     inkscape:window-width="1366"
     inkscape:window-height="742"
     inkscape:window-x="0"
     inkscape:window-y="0"
     inkscape:window-maximized="1"
     inkscape:snap-nodes="true" />
  <metadata
     id="metadata7">
    <rdf:RDF>
      <cc:Work
         rdf:about="">
        <dc:format>image/svg+xml</dc:format>
        <dc:type
           rdf:resource="http://purl.org/dc/dcmitype/StillImage" />
        <dc:title />
      </cc:Work>
    </rdf:RDF>
  </metadata>
  <g
     inkscape:label="Layer 1"
     inkscape:groupmode="layer"
     id="layer1"
     transform="translate(0,-1002.3622)">
    <circle
       style="fill:url(#linearGradient4170);fill-opacity:1;fill-rule:evenodd;stroke:none;stroke-width:9.30000019;stroke-linecap:butt;stroke-linejoin:miter;stroke-miterlimit:4;stroke-dasharray:none;stroke-opacity:0"
       id="path3336"
       cx="25.000002"
       cy="1027.3622"
       r="25.000002" />
    <path
       style="fill:url(#linearGradient4524);fill-opacity:1;stroke-width:0.67125064"
       d="m 31.98132,1011.9569 -1.686372,2.5968 a 9.2312327,9.2314611 0 0 0 -12.243048,3.0335 9.2312327,9.2314611 0 0 0 2.215164,12.4084 l -4.04572,6.2301 a 6.1542004,1.8462788 33.000774 0 0 -5.644169,-1.4783 6.1542004,1.8462788 33.000774 0 0 -0.06293,0.1453 6.1541998,1.8462787 33.000774 0 0 -0.104664,0.1128 6.1541998,1.8462787 33.000774 0 0 4.155771,4.9004 6.1541998,1.8462787 33.000774 0 0 6.166846,1.8034 6.1541998,1.8462787 33.000774 0 0 0.06424,-0.1475 6.1542004,1.8462788 33.000774 0 0 0.103356,-0.1104 6.1542004,1.8462788 33.000774 0 0 -3.643568,-4.5591 l 2.350184,-3.619 c 0,0 9.869307,6.4026 16.545423,-4.0089 6.579664,-10.2608 -3.13825,-16.6368 -3.13825,-16.6368 z m 0.756648,1.9245 c 1.727207,1.0434 8.269575,5.7749 2.381603,14.7125 -6.824236,10.3588 -14.842804,3.6468 -14.842804,3.6468 l 1.017321,-1.5667 a 9.2312327,9.2314611 0 0 0 12.241739,-3.0314 9.2312327,9.2314611 0 0 0 -2.215163,-12.4085 l 1.022559,-1.5745 c 0,0 0.148001,0.072 0.394745,0.2218 z"
       id="rect4487"
       inkscape:connector-curvature="0" />
  </g>
</svg>
